HIERARCHY
ROOT Pelvis
{
	OFFSET 0.000000 0.000000 0.000000
	CHANNELS 6 Xposition Yposition Zposition Xrotation Yrotation Zrotation
	JOINT LeftUpLeg_virtual
	{
		OFFSET 0.000000 0.000000 0.000000
		CHANNELS 3 Xrotation Yrotation Zrotation
		JOINT LeftUpLeg
		{
			OFFSET 18.735201 -5.666702 -4.541200
			CHANNELS 3 Xrotation Yrotation Zrotation
			JOINT LeftLeg
			{
				OFFSET -0.021200 -31.938179 0.493100
				CHANNELS 3 Xrotation Yrotation Zrotation
				JOINT LeftFoot
				{
					OFFSET 0.021200 -31.938179 -4.336299
					CHANNELS 3 Xrotation Yrotation Zrotation
					JOINT LeftToeBase
					{
						OFFSET 0.943001 -26.722000 15.023500
						CHANNELS 3 Xrotation Yrotation Zrotation
						End Site
						{
							OFFSET 0 0 0
						}
					}
				}
			}
		}
	}
	JOINT RightUpLeg_virtual
	{
		OFFSET 0.000000 0.000000 0.000000
		CHANNELS 3 Xrotation Yrotation Zrotation
		JOINT RightUpLeg
		{
			OFFSET -18.735201 -5.666702 -4.541200
			CHANNELS 3 Xrotation Yrotation Zrotation
			JOINT RightLeg
			{
				OFFSET 0.018946 -31.938133 0.493100
				CHANNELS 3 Xrotation Yrotation Zrotation
				JOINT RightFoot
				{
					OFFSET -0.018946 -31.938126 -4.336299
					CHANNELS 3 Xrotation Yrotation Zrotation
					JOINT RightToeBase
					{
						OFFSET -0.943001 -26.722004 15.023500
						CHANNELS 3 Xrotation Yrotation Zrotation
						End Site
						{
							OFFSET 0 0 0
						}
					}
				}
			}
		}
	}
	JOINT Hips_virtual
	{
		OFFSET 0.000000 0.000000 0.000000
		CHANNELS 3 Xrotation Yrotation Zrotation
		JOINT Hips
		{
			OFFSET -0.000000 -0.000000 -0.000000
			CHANNELS 3 Xrotation Yrotation Zrotation
			JOINT Spine
			{
				OFFSET 0.000000 10.199997 -0.299500
				CHANNELS 3 Xrotation Yrotation Zrotation
				JOINT Spine1
				{
					OFFSET 0.000000 11.900002 -1.516600
					CHANNELS 3 Xrotation Yrotation Zrotation
					JOINT Spine2
					{
						OFFSET 0.000000 13.600006 -2.842500
						CHANNELS 3 Xrotation Yrotation Zrotation
						JOINT Neck_virtual
						{
							OFFSET 0.000000 0.000000 0.000000
							CHANNELS 3 Xrotation Yrotation Zrotation
							JOINT Neck
							{
								OFFSET 0.000000 9.624100 -2.890100
								CHANNELS 3 Xrotation Yrotation Zrotation
								JOINT Head
								{
									OFFSET 0.000000 14.068802 -1.351900
									CHANNELS 3 Xrotation Yrotation Zrotation
									End Site
									{
										OFFSET 0 0 0
									}
								}
							}
						}
						JOINT LeftShoulder_virtual
						{
							OFFSET 0.000000 0.000000 0.000000
							CHANNELS 3 Xrotation Yrotation Zrotation
							JOINT LeftShoulder
							{
								OFFSET 15.263000 10.923401 -0.547700
								CHANNELS 3 Xrotation Yrotation Zrotation
								JOINT LeftArm
								{
									OFFSET 25.438599 -2.830597 -13.032500
									CHANNELS 3 Xrotation Yrotation Zrotation
									JOINT LeftForeArm
									{
										OFFSET 29.960503 0.000000 0.000000
										CHANNELS 3 Xrotation Yrotation Zrotation
										JOINT LeftHand
										{
											OFFSET 27.849251 0.000000 0.000000
											CHANNELS 3 Xrotation Yrotation Zrotation
											End Site
											{
												OFFSET 0 0 0
											}
										}
									}
								}
							}
						}
						JOINT RightShoulder_virtual
						{
							OFFSET 0.000000 0.000000 0.000000
							CHANNELS 3 Xrotation Yrotation Zrotation
							JOINT RightShoulder
							{
								OFFSET -15.263000 10.923401 -0.547700
								CHANNELS 3 Xrotation Yrotation Zrotation
								JOINT RightArm
								{
									OFFSET -25.438599 -2.830597 -13.032500
									CHANNELS 3 Xrotation Yrotation Zrotation
									JOINT RightForeArm
									{
										OFFSET -29.960503 0.000000 0.000000
										CHANNELS 3 Xrotation Yrotation Zrotation
										JOINT RightHand
										{
											OFFSET -27.849251 0.000000 0.000000
											CHANNELS 3 Xrotation Yrotation Zrotation
											End Site
											{
												OFFSET 0 0 0
											}
										}
									}
								}
							}
						}
					}
				}
			}
		}
	}
}
MOTION
Frames: 5
Frame Time: 0.03333333
70.765419 91.053619 45.805054 0.000000 0.000000 0.000000 13.987625 10.585864 -6.619958 -27.444315 16.846803 13.222210 44.529087 -5.537862 1.447382 -5.644107 -6.595599 -6.799731 0.000000 0.000000 0.000000 11.126034 41.230153 -0.210726 -14.435267 5.726250 -8.783902 35.728528 -8.065945 -0.208547 -14.003589 -11.554972 5.415238 0.000000 0.000000 0.000000 21.375407 46.805801 -11.190801 -28.437361 23.672083 -12.769834 7.250116 15.690157 -3.600904 4.927240 7.846204 -2.666271 0.000000 0.000000 0.000000 12.890489 4.632423 -3.142169 2.699896 -0.884502 -0.255585 0.000000 0.000000 0.000000 5.493970 9.677143 -3.710921 -1.938512 1.979967 -9.170607 3.933140 -39.416130 -48.020335 43.328186 -80.691349 34.960122 0.000000 0.000000 0.000000 5.609096 12.426752 -0.208662 -7.083929 30.770337 13.891956 0.029145 32.831695 35.568729 6.210058 46.880356 1.839890 0.000000 0.000000 0.000000 
70.487976 91.214600 45.720955 0.000000 0.000000 0.000000 13.986732 10.346817 -6.473198 -27.327952 16.750260 13.288918 44.307816 -5.116966 1.304635 -5.782778 -6.087428 -6.713238 0.000000 0.000000 0.000000 11.328180 40.161243 -0.098217 -14.131019 5.336925 -8.782290 34.679165 -8.361639 -0.542173 -14.953108 -11.711611 4.712840 0.000000 0.000000 0.000000 20.819918 45.900036 -10.687282 -27.677171 23.536130 -13.058827 7.220323 15.432164 -3.418922 4.843027 7.689819 -2.534356 0.000000 0.000000 0.000000 12.700534 4.498374 -3.059068 2.627036 -0.879537 -0.298176 0.000000 0.000000 0.000000 5.395186 9.456844 -3.519397 -1.840174 2.009033 -9.149013 3.750357 -39.271211 -48.279441 42.742706 -80.698255 34.438203 0.000000 0.000000 0.000000 5.583716 12.197847 -0.076950 -6.976132 30.320023 14.380190 0.084611 32.361126 36.007798 6.380903 47.326903 1.424765 0.000000 0.000000 0.000000 
70.171043 91.371391 45.607769 0.000000 0.000000 0.000000 13.966654 10.112656 -6.315999 -27.230988 16.647531 13.365778 44.063760 -4.698126 1.157222 -5.945659 -5.577376 -6.637230 0.000000 0.000000 0.000000 11.516181 38.897384 0.051520 -13.848023 4.883034 -8.783079 33.619776 -8.744064 -0.833510 -15.947243 -11.964093 4.038488 0.000000 0.000000 0.000000 20.255863 44.913217 -10.176683 -26.693645 23.460009 -13.376040 7.154049 15.155795 -3.232362 4.732381 7.524031 -2.398288 0.000000 0.000000 0.000000 12.469958 4.353684 -2.975528 2.538041 -0.874576 -0.344935 0.000000 0.000000 0.000000 5.273414 9.215622 -3.324761 -1.741371 2.008410 -9.134362 3.527665 -39.134853 -48.514820 42.131124 -80.706499 33.902795 0.000000 0.000000 0.000000 5.539596 11.949749 0.054829 -6.843495 29.845956 14.841613 0.146505 31.918782 36.468006 6.570785 47.849915 0.994508 0.000000 0.000000 0.000000 
69.813469 91.518661 45.466473 0.000000 0.000000 0.000000 13.919079 9.889504 -6.145560 -27.165643 16.537401 13.457803 43.806125 -4.291217 1.005639 -6.124026 -5.076628 -6.578261 0.000000 0.000000 0.000000 11.679854 37.469072 0.236840 -13.599509 4.378382 -8.783750 32.538137 -9.185775 -1.092026 -16.979794 -12.281429 3.396772 0.000000 0.000000 0.000000 19.687144 43.857382 -9.663779 -25.520000 23.452771 -13.704900 7.048405 14.860214 -3.042791 4.594676 7.348326 -2.259377 0.000000 0.000000 0.000000 12.196483 4.200093 -2.896464 2.431333 -0.868598 -0.397861 0.000000 0.000000 0.000000 5.129369 8.955613 -3.130582 -1.642843 1.982360 -9.134343 3.271295 -39.007156 -48.729186 41.480866 -80.713500 33.338222 0.000000 0.000000 0.000000 5.476644 11.682865 0.183548 -6.685801 29.349104 15.262999 0.206367 31.528338 36.950770 6.781034 48.470929 0.549291 0.000000 0.000000 0.000000 
69.417908 91.649658 45.301365 0.000000 0.000000 0.000000 13.837448 9.682691 -5.959459 -27.142079 16.418931 13.569508 43.545738 -3.904348 0.850762 -6.307094 -4.594777 -6.540874 0.000000 0.000000 0.000000 11.811479 35.922198 0.454594 -13.394858 3.841080 -8.779436 31.424672 -9.652885 -1.329848 -18.040727 -12.626323 2.789739 0.000000 0.000000 0.000000 19.114995 42.744997 -9.150976 -24.196340 23.518028 -14.022980 6.903342 14.543973 -2.850788 4.430740 7.161950 -2.118154 0.000000 0.000000 0.000000 11.875627 4.039003 -2.828585 2.304274 -0.860753 -0.459909 0.000000 0.000000 0.000000 4.963867 8.678966 -2.940174 -1.545645 1.934037 -9.155490 2.984909 -38.889752 -48.926144 40.778364 -80.716744 32.728286 0.000000 0.000000 0.000000 5.394600 11.397493 0.306390 -6.503782 28.828876 15.632560 0.247650 31.207227 37.456262 7.009213 49.205489 0.090114 0.000000 0.000000 0.000000 
